<svg width="200" height="200" viewBox="0 0 200 200" fill="none" xmlns="http://www.w3.org/2000/svg">
<path d="M32 5H168C182.912 5 195 17.0883 195 32V168C195 182.912 182.912 195 168 195H32C17.0883 195 5 182.912 5 168V32C5 17.0883 17.0883 5 32 5Z" fill="url(#paint0_linear_1_8)" stroke="#0A1F31" stroke-width="10"/>
<path d="M43.3125 123C41.75 123 40.9688 122.141 40.9688 120.422V58.3594C40.9688 56.6406 41.75 55.7812 43.3125 55.7812H61.5938C72.2188 55.7812 79.375 57.5 83.0625 60.9375C86.75 64.375 88.5938 68.5156 88.5938 73.3594C88.5938 77.2031 87.0625 80.4688 84 83.1562C80.9375 85.8125 77.9688 87.375 75.0938 87.8438V87.9844C78.25 88.2656 81.7656 89.8438 85.6406 92.7188C89.5469 95.5625 91.5 99.4375 91.5 104.344C91.5 109.656 89.5312 114.094 85.5938 117.656C81.6875 121.219 74.4688 123 63.9375 123H43.3125ZM49.9688 115.312H62.4375C69.1562 115.312 74.0781 114.484 77.2031 112.828C80.3281 111.172 81.8906 108.25 81.8906 104.062C81.8906 100.188 80.2969 97.1875 77.1094 95.0625C73.9531 92.9375 69.0625 91.875 62.4375 91.875H49.9688V115.312ZM49.9688 85.125H61.7344C66.9531 85.125 71.2031 84.0156 74.4844 81.7969C77.7969 79.5469 79.4531 76.7344 79.4531 73.3594C79.4531 70.1406 78.2188 67.6875 75.75 66C73.2812 64.3125 68.6094 63.4688 61.7344 63.4688H49.9688V85.125ZM109.849 123C108.286 123 107.505 122.141 107.505 120.422V58.3594C107.505 56.6406 108.286 55.7812 109.849 55.7812H115.849C118.036 55.7812 119.599 56.5625 120.536 58.125L149.88 107.297H150.067C150.005 106.047 149.974 104.797 149.974 103.547V58.3594C149.974 56.6406 150.755 55.7812 152.317 55.7812H156.63C158.192 55.7812 158.974 56.6406 158.974 58.3594V120.422C158.974 122.141 158.192 123 156.63 123H152.505C150.317 123 148.755 122.219 147.817 120.656L116.599 68.4844H116.411C116.474 69.7344 116.505 70.9844 116.505 72.2344V120.422C116.505 122.141 115.724 123 114.161 123H109.849Z" fill="url(#paint1_linear_1_8)"/>
<path d="M40.5039 153C40.276 153 40.1621 152.875 40.1621 152.624V143.573C40.1621 143.323 40.276 143.197 40.5039 143.197H43.1699C44.7194 143.197 45.763 143.448 46.3008 143.949C46.8385 144.451 47.1074 145.054 47.1074 145.761C47.1074 146.321 46.8841 146.798 46.4375 147.189C45.9909 147.577 45.5579 147.805 45.1387 147.873V147.894C45.599 147.935 46.1117 148.165 46.6768 148.584C47.2464 148.999 47.5312 149.564 47.5312 150.279C47.5312 151.054 47.2441 151.701 46.6699 152.221C46.1003 152.74 45.0475 153 43.5117 153H40.5039ZM41.4746 151.879H43.293C44.2728 151.879 44.9906 151.758 45.4463 151.517C45.902 151.275 46.1299 150.849 46.1299 150.238C46.1299 149.673 45.8975 149.236 45.4326 148.926C44.9723 148.616 44.2591 148.461 43.293 148.461H41.4746V151.879ZM41.4746 147.477H43.1904C43.9515 147.477 44.5713 147.315 45.0498 146.991C45.5329 146.663 45.7744 146.253 45.7744 145.761C45.7744 145.291 45.5944 144.934 45.2344 144.688C44.8743 144.441 44.193 144.318 43.1904 144.318H41.4746V147.477ZM53.3443 149.411C53.3443 148.281 53.6268 147.381 54.1919 146.711C54.757 146.041 55.5659 145.706 56.6187 145.706C57.4937 145.706 58.2183 146.014 58.7925 146.629C59.3713 147.24 59.6607 148.217 59.6607 149.562C59.6607 149.767 59.5672 149.869 59.3804 149.869H54.6157C54.6932 150.749 54.9302 151.362 55.3267 151.708C55.7232 152.05 56.1721 152.221 56.6734 152.221C57.202 152.221 57.6076 152.132 57.8902 151.954C58.1727 151.776 58.3801 151.601 58.5122 151.428C58.6581 151.236 58.7993 151.2 58.9361 151.318L59.3394 151.667C59.4442 151.758 59.4442 151.883 59.3394 152.043C59.2528 152.175 59.0044 152.387 58.5943 152.679C58.1887 152.97 57.5484 153.116 56.6734 153.116C55.534 153.116 54.6932 152.781 54.1509 152.111C53.6131 151.441 53.3443 150.541 53.3443 149.411ZM54.5884 148.98H58.4507C58.4325 148.342 58.2684 147.784 57.9585 147.306C57.6486 146.823 57.1929 146.581 56.5913 146.581C56.0627 146.581 55.6138 146.759 55.2446 147.114C54.8755 147.465 54.6568 148.087 54.5884 148.98ZM65.3711 146.725C65.1661 146.725 65.0635 146.645 65.0635 146.485V146.062C65.0635 145.902 65.1661 145.822 65.3711 145.822H66.1778V145.207C66.1778 145.116 66.2006 145.029 66.2461 144.947L66.7246 144.079C66.8112 143.92 66.8819 143.84 66.9366 143.84H67.1758C67.3125 143.84 67.3809 143.92 67.3809 144.079V145.822H68.837C69.042 145.822 69.1446 145.902 69.1446 146.062V146.485C69.1446 146.645 69.042 146.725 68.837 146.725H67.3809V151.079C67.3809 151.558 67.4515 151.87 67.5928 152.016C67.7386 152.157 67.9118 152.228 68.1123 152.228C68.2673 152.228 68.4519 152.182 68.6661 152.091C68.8848 152 69.0352 151.922 69.1172 151.858C69.1993 151.795 69.2631 151.815 69.3086 151.92L69.5342 152.446C69.5707 152.537 69.5433 152.61 69.4522 152.665C69.2745 152.77 69.0147 152.872 68.6729 152.973C68.3311 153.068 67.9893 153.116 67.6475 153.116C67.1735 153.116 66.809 152.945 66.5537 152.604C66.3031 152.262 66.1778 151.779 66.1778 151.154V146.725H65.3711ZM75.0328 146.725C74.8277 146.725 74.7252 146.645 74.7252 146.485V146.062C74.7252 145.902 74.8277 145.822 75.0328 145.822H75.8394V145.207C75.8394 145.116 75.8622 145.029 75.9078 144.947L76.3863 144.079C76.4729 143.92 76.5435 143.84 76.5982 143.84H76.8375C76.9742 143.84 77.0425 143.92 77.0425 144.079V145.822H78.4986C78.7037 145.822 78.8062 145.902 78.8062 146.062V146.485C78.8062 146.645 78.7037 146.725 78.4986 146.725H77.0425V151.079C77.0425 151.558 77.1132 151.87 77.2545 152.016C77.4003 152.157 77.5735 152.228 77.774 152.228C77.9289 152.228 78.1135 152.182 78.3277 152.091C78.5464 152 78.6968 151.922 78.7789 151.858C78.8609 151.795 78.9247 151.815 78.9703 151.92L79.1959 152.446C79.2323 152.537 79.205 152.61 79.1138 152.665C78.9361 152.77 78.6763 152.872 78.3345 152.973C77.9927 153.068 77.6509 153.116 77.3091 153.116C76.8352 153.116 76.4706 152.945 76.2154 152.604C75.9647 152.262 75.8394 151.779 75.8394 151.154V146.725H75.0328ZM84.6534 149.411C84.6534 148.281 84.9359 147.381 85.5011 146.711C86.0662 146.041 86.8751 145.706 87.9278 145.706C88.8028 145.706 89.5274 146.014 90.1016 146.629C90.6804 147.24 90.9698 148.217 90.9698 149.562C90.9698 149.767 90.8764 149.869 90.6895 149.869H85.9249C86.0024 150.749 86.2393 151.362 86.6358 151.708C87.0323 152.05 87.4812 152.221 87.9825 152.221C88.5111 152.221 88.9167 152.132 89.1993 151.954C89.4818 151.776 89.6892 151.601 89.8214 151.428C89.9672 151.236 90.1085 151.2 90.2452 151.318L90.6485 151.667C90.7533 151.758 90.7533 151.883 90.6485 152.043C90.5619 152.175 90.3136 152.387 89.9034 152.679C89.4978 152.97 88.8575 153.116 87.9825 153.116C86.8432 153.116 86.0024 152.781 85.46 152.111C84.9223 151.441 84.6534 150.541 84.6534 149.411ZM85.8975 148.98H89.7598C89.7416 148.342 89.5776 147.784 89.2677 147.306C88.9578 146.823 88.502 146.581 87.9005 146.581C87.3718 146.581 86.9229 146.759 86.5538 147.114C86.1846 147.465 85.9659 148.087 85.8975 148.98ZM97.3365 153C97.1314 153 97.0289 152.897 97.0289 152.692V146.13C97.0289 145.925 97.1314 145.822 97.3365 145.822H97.9107C98.1158 145.822 98.2184 145.925 98.2184 146.13V146.95H98.2457C98.4645 146.54 98.7219 146.23 99.0182 146.021C99.3144 145.811 99.6835 145.706 100.126 145.706C100.417 145.706 100.622 145.731 100.741 145.781C100.846 145.822 100.884 145.891 100.857 145.986L100.7 146.547C100.677 146.629 100.618 146.661 100.522 146.643C100.363 146.611 100.212 146.595 100.071 146.595C99.5377 146.595 99.0979 146.836 98.7516 147.319C98.4052 147.798 98.232 148.452 98.232 149.281V152.692C98.232 152.897 98.1295 153 97.9244 153H97.3365ZM106.978 153C106.75 153 106.636 152.875 106.636 152.624V143.573C106.636 143.323 106.75 143.197 106.978 143.197H107.853C108.172 143.197 108.4 143.311 108.536 143.539L112.816 150.71H112.843C112.834 150.528 112.829 150.345 112.829 150.163V143.573C112.829 143.323 112.943 143.197 113.171 143.197H113.8C114.028 143.197 114.142 143.323 114.142 143.573V152.624C114.142 152.875 114.028 153 113.8 153H113.198C112.879 153 112.651 152.886 112.515 152.658L107.962 145.05H107.935C107.944 145.232 107.948 145.414 107.948 145.597V152.624C107.948 152.875 107.834 153 107.607 153H106.978ZM120.365 149.411C120.365 148.34 120.647 147.456 121.213 146.759C121.782 146.057 122.614 145.706 123.708 145.706C124.801 145.706 125.631 146.057 126.196 146.759C126.766 147.456 127.05 148.34 127.05 149.411C127.05 150.482 126.766 151.368 126.196 152.07C125.631 152.768 124.801 153.116 123.708 153.116C122.614 153.116 121.782 152.768 121.213 152.07C120.647 151.368 120.365 150.482 120.365 149.411ZM121.636 149.411C121.636 150.368 121.825 151.077 122.204 151.537C122.582 151.997 123.083 152.228 123.708 152.228C124.332 152.228 124.833 151.997 125.212 151.537C125.59 151.077 125.779 150.368 125.779 149.411C125.779 148.454 125.59 147.745 125.212 147.285C124.833 146.825 124.332 146.595 123.708 146.595C123.083 146.595 122.582 146.825 122.204 147.285C121.825 147.745 121.636 148.454 121.636 149.411ZM132.734 146.725C132.528 146.725 132.426 146.645 132.426 146.485V146.062C132.426 145.902 132.528 145.822 132.734 145.822H133.54V145.207C133.54 145.116 133.563 145.029 133.609 144.947L134.087 144.079C134.174 143.92 134.244 143.84 134.299 143.84H134.538C134.675 143.84 134.743 143.92 134.743 144.079V145.822H136.199C136.404 145.822 136.507 145.902 136.507 146.062V146.485C136.507 146.645 136.404 146.725 136.199 146.725H134.743V151.079C134.743 151.558 134.814 151.87 134.955 152.016C135.101 152.157 135.274 152.228 135.475 152.228C135.63 152.228 135.814 152.182 136.028 152.091C136.247 152 136.398 151.922 136.48 151.858C136.562 151.795 136.625 151.815 136.671 151.92L136.897 152.446C136.933 152.537 136.906 152.61 136.815 152.665C136.637 152.77 136.377 152.872 136.035 152.973C135.694 153.068 135.352 153.116 135.01 153.116C134.536 153.116 134.171 152.945 133.916 152.604C133.666 152.262 133.54 151.779 133.54 151.154V146.725H132.734ZM142.354 149.411C142.354 148.281 142.637 147.381 143.202 146.711C143.767 146.041 144.576 145.706 145.629 145.706C146.504 145.706 147.228 146.014 147.802 146.629C148.381 147.24 148.671 148.217 148.671 149.562C148.671 149.767 148.577 149.869 148.39 149.869H143.626C143.703 150.749 143.94 151.362 144.337 151.708C144.733 152.05 145.182 152.221 145.683 152.221C146.212 152.221 146.618 152.132 146.9 151.954C147.183 151.776 147.39 151.601 147.522 151.428C147.668 151.236 147.809 151.2 147.946 151.318L148.349 151.667C148.454 151.758 148.454 151.883 148.349 152.043C148.263 152.175 148.014 152.387 147.604 152.679C147.199 152.97 146.558 153.116 145.683 153.116C144.544 153.116 143.703 152.781 143.161 152.111C142.623 151.441 142.354 150.541 142.354 149.411ZM143.598 148.98H147.461C147.442 148.342 147.278 147.784 146.968 147.306C146.659 146.823 146.203 146.581 145.601 146.581C145.073 146.581 144.624 146.759 144.255 147.114C143.885 147.465 143.667 148.087 143.598 148.98ZM154.449 152.33C154.308 152.198 154.279 152.075 154.361 151.961L154.668 151.53C154.768 151.394 154.917 151.4 155.113 151.551C155.381 151.756 155.68 151.92 156.008 152.043C156.341 152.166 156.719 152.228 157.143 152.228C157.393 152.228 157.617 152.198 157.813 152.139C158.009 152.075 158.18 151.959 158.325 151.79C158.476 151.621 158.551 151.396 158.551 151.113C158.551 150.949 158.515 150.794 158.442 150.648C158.373 150.503 158.264 150.386 158.113 150.3C157.968 150.209 157.824 150.138 157.683 150.088C157.45 150.001 157.218 149.931 156.986 149.876C156.758 149.817 156.457 149.728 156.083 149.609C155.833 149.532 155.596 149.423 155.372 149.281C155.149 149.135 154.953 148.939 154.784 148.693C154.62 148.447 154.538 148.108 154.538 147.675C154.538 147.233 154.673 146.852 154.942 146.533C155.21 146.214 155.548 145.998 155.953 145.884C156.359 145.765 156.753 145.706 157.136 145.706C157.701 145.706 158.154 145.772 158.496 145.904C158.843 146.032 159.141 146.185 159.392 146.362C159.538 146.467 159.558 146.588 159.453 146.725L159.146 147.135C159.05 147.267 158.902 147.262 158.701 147.121C158.533 147.003 158.293 146.891 157.984 146.786C157.674 146.681 157.403 146.629 157.17 146.629C156.883 146.629 156.637 146.661 156.432 146.725C156.227 146.788 156.06 146.898 155.933 147.053C155.805 147.208 155.741 147.39 155.741 147.6C155.741 147.759 155.766 147.903 155.817 148.03C155.867 148.153 155.96 148.267 156.097 148.372C156.234 148.477 156.425 148.561 156.671 148.625C157.054 148.725 157.403 148.816 157.717 148.898C158.036 148.98 158.323 149.081 158.578 149.199C158.911 149.354 159.166 149.525 159.344 149.712C159.526 149.899 159.652 150.102 159.72 150.32C159.788 150.535 159.822 150.774 159.822 151.038C159.822 151.526 159.677 151.938 159.385 152.275C159.098 152.613 158.777 152.838 158.421 152.952C158.066 153.062 157.637 153.116 157.136 153.116C156.457 153.116 155.874 153.021 155.386 152.829C154.903 152.633 154.591 152.467 154.449 152.33Z" fill="#94BED4"/>
<defs>
<linearGradient id="paint0_linear_1_8" x1="100" y1="0" x2="100" y2="230" gradientUnits="userSpaceOnUse">
<stop stop-color="#217987"/>
<stop offset="1" stop-color="#031B27"/>
</linearGradient>
<linearGradient id="paint1_linear_1_8" x1="100" y1="47" x2="100" y2="323" gradientUnits="userSpaceOnUse">
<stop stop-color="white"/>
<stop offset="1" stop-color="#94BED4" stop-opacity="0"/>
</linearGradient>
</defs>
</svg>
