<svg width="216" height="216" viewBox="0 0 216 216" fill="none" xmlns="http://www.w3.org/2000/svg">
<g filter="url(#filter0_d_1_8)">
<path d="M35 7H175C188.807 7 200 18.1929 200 32V172C200 185.807 188.807 197 175 197H35C21.1929 197 10 185.807 10 172V32C10 18.1929 21.1929 7 35 7Z" fill="url(#paint0_linear_1_8)" stroke="#0A1F31" stroke-width="10"/>
<path d="M48.3125 125C46.75 125 45.9688 124.141 45.9688 122.422V60.3594C45.9688 58.6406 46.75 57.7812 48.3125 57.7812H66.5938C77.2188 57.7812 84.375 59.5 88.0625 62.9375C91.75 66.375 93.5938 70.5156 93.5938 75.3594C93.5938 79.2031 92.0625 82.4688 89 85.1562C85.9375 87.8125 82.9688 89.375 80.0938 89.8438V89.9844C83.25 90.2656 86.7656 91.8438 90.6406 94.7188C94.5469 97.5625 96.5 101.438 96.5 106.344C96.5 111.656 94.5312 116.094 90.5938 119.656C86.6875 123.219 79.4688 125 68.9375 125H48.3125ZM54.9688 117.312H67.4375C74.1562 117.312 79.0781 116.484 82.2031 114.828C85.3281 113.172 86.8906 110.25 86.8906 106.062C86.8906 102.188 85.2969 99.1875 82.1094 97.0625C78.9531 94.9375 74.0625 93.875 67.4375 93.875H54.9688V117.312ZM54.9688 87.125H66.7344C71.9531 87.125 76.2031 86.0156 79.4844 83.7969C82.7969 81.5469 84.4531 78.7344 84.4531 75.3594C84.4531 72.1406 83.2188 69.6875 80.75 68C78.2812 66.3125 73.6094 65.4688 66.7344 65.4688H54.9688V87.125ZM114.849 125C113.286 125 112.505 124.141 112.505 122.422V60.3594C112.505 58.6406 113.286 57.7812 114.849 57.7812H120.849C123.036 57.7812 124.599 58.5625 125.536 60.125L154.88 109.297H155.067C155.005 108.047 154.974 106.797 154.974 105.547V60.3594C154.974 58.6406 155.755 57.7812 157.317 57.7812H161.63C163.192 57.7812 163.974 58.6406 163.974 60.3594V122.422C163.974 124.141 163.192 125 161.63 125H157.505C155.317 125 153.755 124.219 152.817 122.656L121.599 70.4844H121.411C121.474 71.7344 121.505 72.9844 121.505 74.2344V122.422C121.505 124.141 120.724 125 119.161 125H114.849Z" fill="url(#paint1_linear_1_8)"/>
<path d="M45.5039 155C45.276 155 45.1621 154.875 45.1621 154.624V145.573C45.1621 145.323 45.276 145.197 45.5039 145.197H48.1699C49.7194 145.197 50.763 145.448 51.3008 145.949C51.8385 146.451 52.1074 147.054 52.1074 147.761C52.1074 148.321 51.8841 148.798 51.4375 149.189C50.9909 149.577 50.5579 149.805 50.1387 149.873V149.894C50.599 149.935 51.1117 150.165 51.6768 150.584C52.2464 150.999 52.5312 151.564 52.5312 152.279C52.5312 153.054 52.2441 153.701 51.6699 154.221C51.1003 154.74 50.0475 155 48.5117 155H45.5039ZM46.4746 153.879H48.293C49.2728 153.879 49.9906 153.758 50.4463 153.517C50.902 153.275 51.1299 152.849 51.1299 152.238C51.1299 151.673 50.8975 151.236 50.4326 150.926C49.9723 150.616 49.2591 150.461 48.293 150.461H46.4746V153.879ZM46.4746 149.477H48.1904C48.9515 149.477 49.5713 149.315 50.0498 148.991C50.5329 148.663 50.7744 148.253 50.7744 147.761C50.7744 147.291 50.5944 146.934 50.2344 146.688C49.8743 146.441 49.193 146.318 48.1904 146.318H46.4746V149.477ZM58.3443 151.411C58.3443 150.281 58.6268 149.381 59.1919 148.711C59.757 148.041 60.5659 147.706 61.6187 147.706C62.4937 147.706 63.2183 148.014 63.7925 148.629C64.3713 149.24 64.6607 150.217 64.6607 151.562C64.6607 151.767 64.5672 151.869 64.3804 151.869H59.6157C59.6932 152.749 59.9302 153.362 60.3267 153.708C60.7232 154.05 61.1721 154.221 61.6734 154.221C62.202 154.221 62.6076 154.132 62.8902 153.954C63.1727 153.776 63.3801 153.601 63.5122 153.428C63.6581 153.236 63.7993 153.2 63.9361 153.318L64.3394 153.667C64.4442 153.758 64.4442 153.883 64.3394 154.043C64.2528 154.175 64.0044 154.387 63.5943 154.679C63.1887 154.97 62.5484 155.116 61.6734 155.116C60.534 155.116 59.6932 154.781 59.1509 154.111C58.6131 153.441 58.3443 152.541 58.3443 151.411ZM59.5884 150.98H63.4507C63.4325 150.342 63.2684 149.784 62.9585 149.306C62.6486 148.823 62.1929 148.581 61.5913 148.581C61.0627 148.581 60.6138 148.759 60.2446 149.114C59.8755 149.465 59.6568 150.087 59.5884 150.98ZM70.3711 148.725C70.1661 148.725 70.0635 148.645 70.0635 148.485V148.062C70.0635 147.902 70.1661 147.822 70.3711 147.822H71.1778V147.207C71.1778 147.116 71.2006 147.029 71.2461 146.947L71.7246 146.079C71.8112 145.92 71.8819 145.84 71.9366 145.84H72.1758C72.3125 145.84 72.3809 145.92 72.3809 146.079V147.822H73.837C74.042 147.822 74.1446 147.902 74.1446 148.062V148.485C74.1446 148.645 74.042 148.725 73.837 148.725H72.3809V153.079C72.3809 153.558 72.4515 153.87 72.5928 154.016C72.7386 154.157 72.9118 154.228 73.1123 154.228C73.2673 154.228 73.4519 154.182 73.6661 154.091C73.8848 154 74.0352 153.922 74.1172 153.858C74.1993 153.795 74.2631 153.815 74.3086 153.92L74.5342 154.446C74.5707 154.537 74.5433 154.61 74.4522 154.665C74.2745 154.77 74.0147 154.872 73.6729 154.973C73.3311 155.068 72.9893 155.116 72.6475 155.116C72.1735 155.116 71.809 154.945 71.5537 154.604C71.3031 154.262 71.1778 153.779 71.1778 153.154V148.725H70.3711ZM80.0328 148.725C79.8277 148.725 79.7252 148.645 79.7252 148.485V148.062C79.7252 147.902 79.8277 147.822 80.0328 147.822H80.8394V147.207C80.8394 147.116 80.8622 147.029 80.9078 146.947L81.3863 146.079C81.4729 145.92 81.5435 145.84 81.5982 145.84H81.8375C81.9742 145.84 82.0425 145.92 82.0425 146.079V147.822H83.4986C83.7037 147.822 83.8062 147.902 83.8062 148.062V148.485C83.8062 148.645 83.7037 148.725 83.4986 148.725H82.0425V153.079C82.0425 153.558 82.1132 153.87 82.2545 154.016C82.4003 154.157 82.5735 154.228 82.774 154.228C82.9289 154.228 83.1135 154.182 83.3277 154.091C83.5464 154 83.6968 153.922 83.7789 153.858C83.8609 153.795 83.9247 153.815 83.9703 153.92L84.1959 154.446C84.2323 154.537 84.205 154.61 84.1138 154.665C83.9361 154.77 83.6763 154.872 83.3345 154.973C82.9927 155.068 82.6509 155.116 82.3091 155.116C81.8352 155.116 81.4706 154.945 81.2154 154.604C80.9647 154.262 80.8394 153.779 80.8394 153.154V148.725H80.0328ZM89.6534 151.411C89.6534 150.281 89.9359 149.381 90.5011 148.711C91.0662 148.041 91.8751 147.706 92.9278 147.706C93.8028 147.706 94.5274 148.014 95.1016 148.629C95.6804 149.24 95.9698 150.217 95.9698 151.562C95.9698 151.767 95.8764 151.869 95.6895 151.869H90.9249C91.0024 152.749 91.2393 153.362 91.6358 153.708C92.0323 154.05 92.4812 154.221 92.9825 154.221C93.5111 154.221 93.9167 154.132 94.1993 153.954C94.4818 153.776 94.6892 153.601 94.8214 153.428C94.9672 153.236 95.1085 153.2 95.2452 153.318L95.6485 153.667C95.7533 153.758 95.7533 153.883 95.6485 154.043C95.5619 154.175 95.3136 154.387 94.9034 154.679C94.4978 154.97 93.8575 155.116 92.9825 155.116C91.8432 155.116 91.0024 154.781 90.46 154.111C89.9223 153.441 89.6534 152.541 89.6534 151.411ZM90.8975 150.98H94.7598C94.7416 150.342 94.5776 149.784 94.2677 149.306C93.9578 148.823 93.502 148.581 92.9005 148.581C92.3718 148.581 91.9229 148.759 91.5538 149.114C91.1846 149.465 90.9659 150.087 90.8975 150.98ZM102.337 155C102.131 155 102.029 154.897 102.029 154.692V148.13C102.029 147.925 102.131 147.822 102.337 147.822H102.911C103.116 147.822 103.218 147.925 103.218 148.13V148.95H103.246C103.464 148.54 103.722 148.23 104.018 148.021C104.314 147.811 104.684 147.706 105.126 147.706C105.417 147.706 105.622 147.731 105.741 147.781C105.846 147.822 105.884 147.891 105.857 147.986L105.7 148.547C105.677 148.629 105.618 148.661 105.522 148.643C105.363 148.611 105.212 148.595 105.071 148.595C104.538 148.595 104.098 148.836 103.752 149.319C103.405 149.798 103.232 150.452 103.232 151.281V154.692C103.232 154.897 103.129 155 102.924 155H102.337ZM111.978 155C111.75 155 111.636 154.875 111.636 154.624V145.573C111.636 145.323 111.75 145.197 111.978 145.197H112.853C113.172 145.197 113.4 145.311 113.536 145.539L117.816 152.71H117.843C117.834 152.528 117.829 152.345 117.829 152.163V145.573C117.829 145.323 117.943 145.197 118.171 145.197H118.8C119.028 145.197 119.142 145.323 119.142 145.573V154.624C119.142 154.875 119.028 155 118.8 155H118.198C117.879 155 117.651 154.886 117.515 154.658L112.962 147.05H112.935C112.944 147.232 112.948 147.414 112.948 147.597V154.624C112.948 154.875 112.834 155 112.607 155H111.978ZM125.365 151.411C125.365 150.34 125.647 149.456 126.213 148.759C126.782 148.057 127.614 147.706 128.708 147.706C129.801 147.706 130.631 148.057 131.196 148.759C131.766 149.456 132.05 150.34 132.05 151.411C132.05 152.482 131.766 153.368 131.196 154.07C130.631 154.768 129.801 155.116 128.708 155.116C127.614 155.116 126.782 154.768 126.213 154.07C125.647 153.368 125.365 152.482 125.365 151.411ZM126.636 151.411C126.636 152.368 126.825 153.077 127.204 153.537C127.582 153.997 128.083 154.228 128.708 154.228C129.332 154.228 129.833 153.997 130.212 153.537C130.59 153.077 130.779 152.368 130.779 151.411C130.779 150.454 130.59 149.745 130.212 149.285C129.833 148.825 129.332 148.595 128.708 148.595C128.083 148.595 127.582 148.825 127.204 149.285C126.825 149.745 126.636 150.454 126.636 151.411ZM137.734 148.725C137.528 148.725 137.426 148.645 137.426 148.485V148.062C137.426 147.902 137.528 147.822 137.734 147.822H138.54V147.207C138.54 147.116 138.563 147.029 138.609 146.947L139.087 146.079C139.174 145.92 139.244 145.84 139.299 145.84H139.538C139.675 145.84 139.743 145.92 139.743 146.079V147.822H141.199C141.404 147.822 141.507 147.902 141.507 148.062V148.485C141.507 148.645 141.404 148.725 141.199 148.725H139.743V153.079C139.743 153.558 139.814 153.87 139.955 154.016C140.101 154.157 140.274 154.228 140.475 154.228C140.63 154.228 140.814 154.182 141.028 154.091C141.247 154 141.398 153.922 141.48 153.858C141.562 153.795 141.625 153.815 141.671 153.92L141.897 154.446C141.933 154.537 141.906 154.61 141.815 154.665C141.637 154.77 141.377 154.872 141.035 154.973C140.694 155.068 140.352 155.116 140.01 155.116C139.536 155.116 139.171 154.945 138.916 154.604C138.666 154.262 138.54 153.779 138.54 153.154V148.725H137.734ZM147.354 151.411C147.354 150.281 147.637 149.381 148.202 148.711C148.767 148.041 149.576 147.706 150.629 147.706C151.504 147.706 152.228 148.014 152.802 148.629C153.381 149.24 153.671 150.217 153.671 151.562C153.671 151.767 153.577 151.869 153.39 151.869H148.626C148.703 152.749 148.94 153.362 149.337 153.708C149.733 154.05 150.182 154.221 150.683 154.221C151.212 154.221 151.618 154.132 151.9 153.954C152.183 153.776 152.39 153.601 152.522 153.428C152.668 153.236 152.809 153.2 152.946 153.318L153.349 153.667C153.454 153.758 153.454 153.883 153.349 154.043C153.263 154.175 153.014 154.387 152.604 154.679C152.199 154.97 151.558 155.116 150.683 155.116C149.544 155.116 148.703 154.781 148.161 154.111C147.623 153.441 147.354 152.541 147.354 151.411ZM148.598 150.98H152.461C152.442 150.342 152.278 149.784 151.968 149.306C151.659 148.823 151.203 148.581 150.601 148.581C150.073 148.581 149.624 148.759 149.255 149.114C148.885 149.465 148.667 150.087 148.598 150.98ZM159.449 154.33C159.308 154.198 159.279 154.075 159.361 153.961L159.668 153.53C159.768 153.394 159.917 153.4 160.113 153.551C160.381 153.756 160.68 153.92 161.008 154.043C161.341 154.166 161.719 154.228 162.143 154.228C162.393 154.228 162.617 154.198 162.813 154.139C163.009 154.075 163.18 153.959 163.325 153.79C163.476 153.621 163.551 153.396 163.551 153.113C163.551 152.949 163.515 152.794 163.442 152.648C163.373 152.503 163.264 152.386 163.113 152.3C162.968 152.209 162.824 152.138 162.683 152.088C162.45 152.001 162.218 151.931 161.986 151.876C161.758 151.817 161.457 151.728 161.083 151.609C160.833 151.532 160.596 151.423 160.372 151.281C160.149 151.135 159.953 150.939 159.784 150.693C159.62 150.447 159.538 150.108 159.538 149.675C159.538 149.233 159.673 148.852 159.942 148.533C160.21 148.214 160.548 147.998 160.953 147.884C161.359 147.765 161.753 147.706 162.136 147.706C162.701 147.706 163.154 147.772 163.496 147.904C163.843 148.032 164.141 148.185 164.392 148.362C164.538 148.467 164.558 148.588 164.453 148.725L164.146 149.135C164.05 149.267 163.902 149.262 163.701 149.121C163.533 149.003 163.293 148.891 162.984 148.786C162.674 148.681 162.403 148.629 162.17 148.629C161.883 148.629 161.637 148.661 161.432 148.725C161.227 148.788 161.06 148.898 160.933 149.053C160.805 149.208 160.741 149.39 160.741 149.6C160.741 149.759 160.766 149.903 160.817 150.03C160.867 150.153 160.96 150.267 161.097 150.372C161.234 150.477 161.425 150.561 161.671 150.625C162.054 150.725 162.403 150.816 162.717 150.898C163.036 150.98 163.323 151.081 163.578 151.199C163.911 151.354 164.166 151.525 164.344 151.712C164.526 151.899 164.652 152.102 164.72 152.32C164.788 152.535 164.822 152.774 164.822 153.038C164.822 153.526 164.677 153.938 164.385 154.275C164.098 154.613 163.777 154.838 163.421 154.952C163.066 155.062 162.637 155.116 162.136 155.116C161.457 155.116 160.874 155.021 160.386 154.829C159.903 154.633 159.591 154.467 159.449 154.33Z" fill="#94BED4"/>
</g>
<defs>
<filter id="filter0_d_1_8" x="0" y="0" width="216" height="216" filterUnits="userSpaceOnUse" color-interpolation-filters="sRGB">
<feFlood flood-opacity="0" result="BackgroundImageFix"/>
<feColorMatrix in="SourceAlpha" type="matrix" values="0 0 0 0 0 0 0 0 0 0 0 0 0 0 0 0 0 0 127 0" result="hardAlpha"/>
<feOffset dx="3" dy="6"/>
<feGaussianBlur stdDeviation="4"/>
<feColorMatrix type="matrix" values="0 0 0 0 0 0 0 0 0 0 0 0 0 0 0 0 0 0 0.33 0"/>
<feBlend mode="normal" in2="BackgroundImageFix" result="effect1_dropShadow_1_8"/>
<feBlend mode="normal" in="SourceGraphic" in2="effect1_dropShadow_1_8" result="shape"/>
</filter>
<linearGradient id="paint0_linear_1_8" x1="105" y1="2" x2="105" y2="232" gradientUnits="userSpaceOnUse">
<stop stop-color="#217987"/>
<stop offset="1" stop-color="#031B27"/>
</linearGradient>
<linearGradient id="paint1_linear_1_8" x1="105" y1="49" x2="105" y2="325" gradientUnits="userSpaceOnUse">
<stop stop-color="white"/>
<stop offset="1" stop-color="#94BED4" stop-opacity="0"/>
</linearGradient>
</defs>
</svg>
