<svg width="216" height="216" viewBox="0 0 216 216" fill="none" xmlns="http://www.w3.org/2000/svg">
<g filter="url(#filter0_d_1_8)">
<path d="M32 7H172C185.807 7 197 18.1929 197 32V172C197 185.807 185.807 197 172 197H32C18.1929 197 7 185.807 7 172V32C7 18.1929 18.1929 7 32 7Z" fill="url(#paint0_linear_1_8)" stroke="#0A1F31" stroke-width="10"/>
<path d="M45.3125 125C43.75 125 42.9688 124.141 42.9688 122.422V60.3594C42.9688 58.6406 43.75 57.7812 45.3125 57.7812H63.5938C74.2188 57.7812 81.375 59.5 85.0625 62.9375C88.75 66.375 90.5938 70.5156 90.5938 75.3594C90.5938 79.2031 89.0625 82.4688 86 85.1562C82.9375 87.8125 79.9688 89.375 77.0938 89.8438V89.9844C80.25 90.2656 83.7656 91.8438 87.6406 94.7188C91.5469 97.5625 93.5 101.438 93.5 106.344C93.5 111.656 91.5312 116.094 87.5938 119.656C83.6875 123.219 76.4688 125 65.9375 125H45.3125ZM51.9688 117.312H64.4375C71.1562 117.312 76.0781 116.484 79.2031 114.828C82.3281 113.172 83.8906 110.25 83.8906 106.062C83.8906 102.188 82.2969 99.1875 79.1094 97.0625C75.9531 94.9375 71.0625 93.875 64.4375 93.875H51.9688V117.312ZM51.9688 87.125H63.7344C68.9531 87.125 73.2031 86.0156 76.4844 83.7969C79.7969 81.5469 81.4531 78.7344 81.4531 75.3594C81.4531 72.1406 80.2188 69.6875 77.75 68C75.2812 66.3125 70.6094 65.4688 63.7344 65.4688H51.9688V87.125ZM111.849 125C110.286 125 109.505 124.141 109.505 122.422V60.3594C109.505 58.6406 110.286 57.7812 111.849 57.7812H117.849C120.036 57.7812 121.599 58.5625 122.536 60.125L151.88 109.297H152.067C152.005 108.047 151.974 106.797 151.974 105.547V60.3594C151.974 58.6406 152.755 57.7812 154.317 57.7812H158.63C160.192 57.7812 160.974 58.6406 160.974 60.3594V122.422C160.974 124.141 160.192 125 158.63 125H154.505C152.317 125 150.755 124.219 149.817 122.656L118.599 70.4844H118.411C118.474 71.7344 118.505 72.9844 118.505 74.2344V122.422C118.505 124.141 117.724 125 116.161 125H111.849Z" fill="url(#paint1_linear_1_8)"/>
<path d="M42.5039 155C42.276 155 42.1621 154.875 42.1621 154.624V145.573C42.1621 145.323 42.276 145.197 42.5039 145.197H45.1699C46.7194 145.197 47.763 145.448 48.3008 145.949C48.8385 146.451 49.1074 147.054 49.1074 147.761C49.1074 148.321 48.8841 148.798 48.4375 149.189C47.9909 149.577 47.5579 149.805 47.1387 149.873V149.894C47.599 149.935 48.1117 150.165 48.6768 150.584C49.2464 150.999 49.5312 151.564 49.5312 152.279C49.5312 153.054 49.2441 153.701 48.6699 154.221C48.1003 154.74 47.0475 155 45.5117 155H42.5039ZM43.4746 153.879H45.293C46.2728 153.879 46.9906 153.758 47.4463 153.517C47.902 153.275 48.1299 152.849 48.1299 152.238C48.1299 151.673 47.8975 151.236 47.4326 150.926C46.9723 150.616 46.2591 150.461 45.293 150.461H43.4746V153.879ZM43.4746 149.477H45.1904C45.9515 149.477 46.5713 149.315 47.0498 148.991C47.5329 148.663 47.7744 148.253 47.7744 147.761C47.7744 147.291 47.5944 146.934 47.2344 146.688C46.8743 146.441 46.193 146.318 45.1904 146.318H43.4746V149.477ZM55.3443 151.411C55.3443 150.281 55.6268 149.381 56.1919 148.711C56.757 148.041 57.5659 147.706 58.6187 147.706C59.4937 147.706 60.2183 148.014 60.7925 148.629C61.3713 149.24 61.6607 150.217 61.6607 151.562C61.6607 151.767 61.5672 151.869 61.3804 151.869H56.6157C56.6932 152.749 56.9302 153.362 57.3267 153.708C57.7232 154.05 58.1721 154.221 58.6734 154.221C59.202 154.221 59.6076 154.132 59.8902 153.954C60.1727 153.776 60.3801 153.601 60.5122 153.428C60.6581 153.236 60.7993 153.2 60.9361 153.318L61.3394 153.667C61.4442 153.758 61.4442 153.883 61.3394 154.043C61.2528 154.175 61.0044 154.387 60.5943 154.679C60.1887 154.97 59.5484 155.116 58.6734 155.116C57.534 155.116 56.6932 154.781 56.1509 154.111C55.6131 153.441 55.3443 152.541 55.3443 151.411ZM56.5884 150.98H60.4507C60.4325 150.342 60.2684 149.784 59.9585 149.306C59.6486 148.823 59.1929 148.581 58.5913 148.581C58.0627 148.581 57.6138 148.759 57.2446 149.114C56.8755 149.465 56.6568 150.087 56.5884 150.98ZM67.3711 148.725C67.1661 148.725 67.0635 148.645 67.0635 148.485V148.062C67.0635 147.902 67.1661 147.822 67.3711 147.822H68.1778V147.207C68.1778 147.116 68.2006 147.029 68.2461 146.947L68.7246 146.079C68.8112 145.92 68.8819 145.84 68.9366 145.84H69.1758C69.3125 145.84 69.3809 145.92 69.3809 146.079V147.822H70.837C71.042 147.822 71.1446 147.902 71.1446 148.062V148.485C71.1446 148.645 71.042 148.725 70.837 148.725H69.3809V153.079C69.3809 153.558 69.4515 153.87 69.5928 154.016C69.7386 154.157 69.9118 154.228 70.1123 154.228C70.2673 154.228 70.4519 154.182 70.6661 154.091C70.8848 154 71.0352 153.922 71.1172 153.858C71.1993 153.795 71.2631 153.815 71.3086 153.92L71.5342 154.446C71.5707 154.537 71.5433 154.61 71.4522 154.665C71.2745 154.77 71.0147 154.872 70.6729 154.973C70.3311 155.068 69.9893 155.116 69.6475 155.116C69.1735 155.116 68.809 154.945 68.5537 154.604C68.3031 154.262 68.1778 153.779 68.1778 153.154V148.725H67.3711ZM77.0328 148.725C76.8277 148.725 76.7252 148.645 76.7252 148.485V148.062C76.7252 147.902 76.8277 147.822 77.0328 147.822H77.8394V147.207C77.8394 147.116 77.8622 147.029 77.9078 146.947L78.3863 146.079C78.4729 145.92 78.5435 145.84 78.5982 145.84H78.8375C78.9742 145.84 79.0425 145.92 79.0425 146.079V147.822H80.4986C80.7037 147.822 80.8062 147.902 80.8062 148.062V148.485C80.8062 148.645 80.7037 148.725 80.4986 148.725H79.0425V153.079C79.0425 153.558 79.1132 153.87 79.2545 154.016C79.4003 154.157 79.5735 154.228 79.774 154.228C79.9289 154.228 80.1135 154.182 80.3277 154.091C80.5464 154 80.6968 153.922 80.7789 153.858C80.8609 153.795 80.9247 153.815 80.9703 153.92L81.1959 154.446C81.2323 154.537 81.205 154.61 81.1138 154.665C80.9361 154.77 80.6763 154.872 80.3345 154.973C79.9927 155.068 79.6509 155.116 79.3091 155.116C78.8352 155.116 78.4706 154.945 78.2154 154.604C77.9647 154.262 77.8394 153.779 77.8394 153.154V148.725H77.0328ZM86.6534 151.411C86.6534 150.281 86.9359 149.381 87.5011 148.711C88.0662 148.041 88.8751 147.706 89.9278 147.706C90.8028 147.706 91.5274 148.014 92.1016 148.629C92.6804 149.24 92.9698 150.217 92.9698 151.562C92.9698 151.767 92.8764 151.869 92.6895 151.869H87.9249C88.0024 152.749 88.2393 153.362 88.6358 153.708C89.0323 154.05 89.4812 154.221 89.9825 154.221C90.5111 154.221 90.9167 154.132 91.1993 153.954C91.4818 153.776 91.6892 153.601 91.8214 153.428C91.9672 153.236 92.1085 153.2 92.2452 153.318L92.6485 153.667C92.7533 153.758 92.7533 153.883 92.6485 154.043C92.5619 154.175 92.3136 154.387 91.9034 154.679C91.4978 154.97 90.8575 155.116 89.9825 155.116C88.8432 155.116 88.0024 154.781 87.46 154.111C86.9223 153.441 86.6534 152.541 86.6534 151.411ZM87.8975 150.98H91.7598C91.7416 150.342 91.5776 149.784 91.2677 149.306C90.9578 148.823 90.502 148.581 89.9005 148.581C89.3718 148.581 88.9229 148.759 88.5538 149.114C88.1846 149.465 87.9659 150.087 87.8975 150.98ZM99.3365 155C99.1314 155 99.0289 154.897 99.0289 154.692V148.13C99.0289 147.925 99.1314 147.822 99.3365 147.822H99.9107C100.116 147.822 100.218 147.925 100.218 148.13V148.95H100.246C100.464 148.54 100.722 148.23 101.018 148.021C101.314 147.811 101.684 147.706 102.126 147.706C102.417 147.706 102.622 147.731 102.741 147.781C102.846 147.822 102.884 147.891 102.857 147.986L102.7 148.547C102.677 148.629 102.618 148.661 102.522 148.643C102.363 148.611 102.212 148.595 102.071 148.595C101.538 148.595 101.098 148.836 100.752 149.319C100.405 149.798 100.232 150.452 100.232 151.281V154.692C100.232 154.897 100.129 155 99.9244 155H99.3365ZM108.978 155C108.75 155 108.636 154.875 108.636 154.624V145.573C108.636 145.323 108.75 145.197 108.978 145.197H109.853C110.172 145.197 110.4 145.311 110.536 145.539L114.816 152.71H114.843C114.834 152.528 114.829 152.345 114.829 152.163V145.573C114.829 145.323 114.943 145.197 115.171 145.197H115.8C116.028 145.197 116.142 145.323 116.142 145.573V154.624C116.142 154.875 116.028 155 115.8 155H115.198C114.879 155 114.651 154.886 114.515 154.658L109.962 147.05H109.935C109.944 147.232 109.948 147.414 109.948 147.597V154.624C109.948 154.875 109.834 155 109.607 155H108.978ZM122.365 151.411C122.365 150.34 122.647 149.456 123.213 148.759C123.782 148.057 124.614 147.706 125.708 147.706C126.801 147.706 127.631 148.057 128.196 148.759C128.766 149.456 129.05 150.34 129.05 151.411C129.05 152.482 128.766 153.368 128.196 154.07C127.631 154.768 126.801 155.116 125.708 155.116C124.614 155.116 123.782 154.768 123.213 154.07C122.647 153.368 122.365 152.482 122.365 151.411ZM123.636 151.411C123.636 152.368 123.825 153.077 124.204 153.537C124.582 153.997 125.083 154.228 125.708 154.228C126.332 154.228 126.833 153.997 127.212 153.537C127.59 153.077 127.779 152.368 127.779 151.411C127.779 150.454 127.59 149.745 127.212 149.285C126.833 148.825 126.332 148.595 125.708 148.595C125.083 148.595 124.582 148.825 124.204 149.285C123.825 149.745 123.636 150.454 123.636 151.411ZM134.734 148.725C134.528 148.725 134.426 148.645 134.426 148.485V148.062C134.426 147.902 134.528 147.822 134.734 147.822H135.54V147.207C135.54 147.116 135.563 147.029 135.609 146.947L136.087 146.079C136.174 145.92 136.244 145.84 136.299 145.84H136.538C136.675 145.84 136.743 145.92 136.743 146.079V147.822H138.199C138.404 147.822 138.507 147.902 138.507 148.062V148.485C138.507 148.645 138.404 148.725 138.199 148.725H136.743V153.079C136.743 153.558 136.814 153.87 136.955 154.016C137.101 154.157 137.274 154.228 137.475 154.228C137.63 154.228 137.814 154.182 138.028 154.091C138.247 154 138.398 153.922 138.48 153.858C138.562 153.795 138.625 153.815 138.671 153.92L138.897 154.446C138.933 154.537 138.906 154.61 138.815 154.665C138.637 154.77 138.377 154.872 138.035 154.973C137.694 155.068 137.352 155.116 137.01 155.116C136.536 155.116 136.171 154.945 135.916 154.604C135.666 154.262 135.54 153.779 135.54 153.154V148.725H134.734ZM144.354 151.411C144.354 150.281 144.637 149.381 145.202 148.711C145.767 148.041 146.576 147.706 147.629 147.706C148.504 147.706 149.228 148.014 149.802 148.629C150.381 149.24 150.671 150.217 150.671 151.562C150.671 151.767 150.577 151.869 150.39 151.869H145.626C145.703 152.749 145.94 153.362 146.337 153.708C146.733 154.05 147.182 154.221 147.683 154.221C148.212 154.221 148.618 154.132 148.9 153.954C149.183 153.776 149.39 153.601 149.522 153.428C149.668 153.236 149.809 153.2 149.946 153.318L150.349 153.667C150.454 153.758 150.454 153.883 150.349 154.043C150.263 154.175 150.014 154.387 149.604 154.679C149.199 154.97 148.558 155.116 147.683 155.116C146.544 155.116 145.703 154.781 145.161 154.111C144.623 153.441 144.354 152.541 144.354 151.411ZM145.598 150.98H149.461C149.442 150.342 149.278 149.784 148.968 149.306C148.659 148.823 148.203 148.581 147.601 148.581C147.073 148.581 146.624 148.759 146.255 149.114C145.885 149.465 145.667 150.087 145.598 150.98ZM156.449 154.33C156.308 154.198 156.279 154.075 156.361 153.961L156.668 153.53C156.768 153.394 156.917 153.4 157.113 153.551C157.381 153.756 157.68 153.92 158.008 154.043C158.341 154.166 158.719 154.228 159.143 154.228C159.393 154.228 159.617 154.198 159.813 154.139C160.009 154.075 160.18 153.959 160.325 153.79C160.476 153.621 160.551 153.396 160.551 153.113C160.551 152.949 160.515 152.794 160.442 152.648C160.373 152.503 160.264 152.386 160.113 152.3C159.968 152.209 159.824 152.138 159.683 152.088C159.45 152.001 159.218 151.931 158.986 151.876C158.758 151.817 158.457 151.728 158.083 151.609C157.833 151.532 157.596 151.423 157.372 151.281C157.149 151.135 156.953 150.939 156.784 150.693C156.62 150.447 156.538 150.108 156.538 149.675C156.538 149.233 156.673 148.852 156.942 148.533C157.21 148.214 157.548 147.998 157.953 147.884C158.359 147.765 158.753 147.706 159.136 147.706C159.701 147.706 160.154 147.772 160.496 147.904C160.843 148.032 161.141 148.185 161.392 148.362C161.538 148.467 161.558 148.588 161.453 148.725L161.146 149.135C161.05 149.267 160.902 149.262 160.701 149.121C160.533 149.003 160.293 148.891 159.984 148.786C159.674 148.681 159.403 148.629 159.17 148.629C158.883 148.629 158.637 148.661 158.432 148.725C158.227 148.788 158.06 148.898 157.933 149.053C157.805 149.208 157.741 149.39 157.741 149.6C157.741 149.759 157.766 149.903 157.817 150.03C157.867 150.153 157.96 150.267 158.097 150.372C158.234 150.477 158.425 150.561 158.671 150.625C159.054 150.725 159.403 150.816 159.717 150.898C160.036 150.98 160.323 151.081 160.578 151.199C160.911 151.354 161.166 151.525 161.344 151.712C161.526 151.899 161.652 152.102 161.72 152.32C161.788 152.535 161.822 152.774 161.822 153.038C161.822 153.526 161.677 153.938 161.385 154.275C161.098 154.613 160.777 154.838 160.421 154.952C160.066 155.062 159.637 155.116 159.136 155.116C158.457 155.116 157.874 155.021 157.386 154.829C156.903 154.633 156.591 154.467 156.449 154.33Z" fill="#94BED4"/>
</g>
<defs>
<filter id="filter0_d_1_8" x="0" y="0" width="216" height="216" filterUnits="userSpaceOnUse" color-interpolation-filters="sRGB">
<feFlood flood-opacity="0" result="BackgroundImageFix"/>
<feColorMatrix in="SourceAlpha" type="matrix" values="0 0 0 0 0 0 0 0 0 0 0 0 0 0 0 0 0 0 127 0" result="hardAlpha"/>
<feOffset dx="6" dy="6"/>
<feGaussianBlur stdDeviation="4"/>
<feColorMatrix type="matrix" values="0 0 0 0 0 0 0 0 0 0 0 0 0 0 0 0 0 0 0.33 0"/>
<feBlend mode="normal" in2="BackgroundImageFix" result="effect1_dropShadow_1_8"/>
<feBlend mode="normal" in="SourceGraphic" in2="effect1_dropShadow_1_8" result="shape"/>
</filter>
<linearGradient id="paint0_linear_1_8" x1="102" y1="2" x2="102" y2="232" gradientUnits="userSpaceOnUse">
<stop stop-color="#217987"/>
<stop offset="1" stop-color="#031B27"/>
</linearGradient>
<linearGradient id="paint1_linear_1_8" x1="102" y1="49" x2="102" y2="325" gradientUnits="userSpaceOnUse">
<stop stop-color="white"/>
<stop offset="1" stop-color="#94BED4" stop-opacity="0"/>
</linearGradient>
</defs>
</svg>
